<?xml version="1.0" encoding="utf-8"?>

<svg version="1.1" id="Capa_1" xmlns="http://www.w3.org/2000/svg" xmlns:xlink="http://www.w3.org/1999/xlink" x="0px" y="0px"
	 viewBox="0 0 406.76 89.46" style="enable-background:new 0 0 406.76 89.46;" xml:space="preserve">
<style type="text/css">
	.st0{fill:#B63856;}
	.st1{fill:#50CBB3;}
	.st2{fill:#F87412;}
	.st3{font-family:'AllianceNo.2-Regular';}
	.st4{font-size:17.7787px;}
	.st5{fill:#7649E7;}
	.st6{fill:#FFFFFF;}
</style>
<g>
	<path class="st0" d="M30.73,44.66h21.03c4.42,0,8,3.58,8,8v21.03c0,4.42-3.58,8-8,8H30.73c-4.42,0-8-3.58-8-8V52.66
		C22.73,48.24,26.31,44.66,30.73,44.66z"/>
	<path class="st1" d="M27.65,33.18h27.19c4.42,0,8,3.58,8,8v27.19c0,4.42-3.58,8-8,8H27.65c-4.42,0-8-3.58-8-8V41.18
		C19.65,36.76,23.23,33.18,27.65,33.18z"/>
	<path class="st2" d="M25.32,23.2h31.86c4.42,0,8,3.58,8,8v31.86c0,4.42-3.58,8-8,8H25.32c-4.42,0-8-3.58-8-8V31.2
		C17.32,26.78,20.9,23.2,25.32,23.2z"/>
	<g>
		<path d="M91.25,64.14V17.18h32.34v7.41H99.62v11.79h20.74v6.96H99.62v13.4h23.97v7.41H91.25z"/>
		<path d="M162.18,30v34.14h-8.05V57.9h-0.45c-1.74,4.19-5.93,6.89-11.53,6.89c-4.25,0-7.67-1.61-10.24-4.77s-3.87-7.47-3.87-12.95
			c0-5.35,1.29-9.66,3.8-12.88c2.58-3.22,6.06-4.83,10.44-4.83c5.22,0,9.6,2.64,11.4,6.83h0.45l0.97-6.18H162.18z M154.13,45.53
			c0-2.71-0.84-4.96-2.58-6.7c-1.74-1.8-3.93-2.71-6.57-2.71c-5.22,0-8.83,3.67-8.83,10.89c0,7.15,3.48,11.08,8.89,11.08
			c5.41,0,9.08-3.8,9.08-9.41V45.53z"/>
		<path d="M176.35,53.58c0,3.35,2.58,5.35,6.89,5.35c3.87,0,6.06-1.61,6.06-4.38c0-2.13-1.29-3.35-3.93-3.8l-6.64-1.22
			c-6.38-1.09-9.6-4.25-9.6-9.47c0-6.7,5.35-10.69,13.66-10.69c8.5,0,13.59,4.19,13.79,10.63h-7.79c-0.13-3.22-2.13-4.83-6.06-4.83
			c-3.54,0-5.6,1.55-5.6,4.12c0,0.97,0.32,1.74,0.9,2.38c1.29,1.22,2.25,1.29,3.99,1.55l6.25,1.1c6.18,1.03,9.28,4.25,9.28,9.73
			c0,6.64-5.67,10.76-14.37,10.76c-9.21,0-14.62-4.51-14.62-11.21H176.35z"/>
		<path d="M197.94,30h8.63l4.83,14.56l3.03,10.05h0.45l2.96-10.05L222.35,30h8.38l-12.18,34.72c-2.45,7.21-7.28,10.82-14.56,10.82
			c-1.22,0-2.51-0.13-3.8-0.32v-6.64c0.97,0.19,2,0.26,3.09,0.26c3.61,0,5.86-1.55,6.83-4.64l0.58-1.67L197.94,30z"/>
		<path d="M234.6,64.14V16.54h7.99v19.84h0.52c1.61-4.19,5.99-7.02,11.4-7.02c4.25,0,7.67,1.61,10.31,4.77
			c2.64,3.16,3.93,7.47,3.93,12.95c0,5.35-1.29,9.66-3.87,12.88s-6.06,4.83-10.37,4.83c-5.22,0-9.6-2.51-11.4-6.7h-0.52l-0.9,6.06
			H234.6z M242.58,48.81c0,5.61,3.8,9.28,9.02,9.28c5.35,0,8.96-3.8,8.96-11.02c0-7.41-3.74-10.95-8.96-10.95
			c-5.41,0-9.02,3.8-9.02,9.47V48.81z"/>
		<path d="M306.88,30v34.14h-7.99v-6.38h-0.52c-1.8,4.32-5.99,7.02-11.4,7.02c-9.21,0-14.24-6.64-14.24-17.78
			c0-11.14,5.22-17.65,14.24-17.65c4.96,0,9.41,2.51,11.4,6.7h0.52l0.9-6.06H306.88z M298.89,45.2c0-5.48-3.8-9.34-9.47-9.34
			c-5.48,0-8.57,3.09-8.57,8.05v6.12c0,5.22,3.22,8.18,8.57,8.18c5.67,0,9.47-3.87,9.47-9.47V45.2z"/>
		<path d="M321.12,53.58c0,3.35,2.58,5.35,6.89,5.35c3.87,0,6.06-1.61,6.06-4.38c0-2.13-1.29-3.35-3.93-3.8l-6.64-1.22
			c-6.38-1.09-9.6-4.25-9.6-9.47c0-6.7,5.35-10.69,13.66-10.69c8.5,0,13.59,4.19,13.79,10.63h-7.79c-0.13-3.22-2.13-4.83-6.06-4.83
			c-3.54,0-5.6,1.55-5.6,4.12c0,0.97,0.32,1.74,0.9,2.38c1.29,1.22,2.25,1.29,3.99,1.55l6.25,1.1c6.18,1.03,9.28,4.25,9.28,9.73
			c0,6.64-5.67,10.76-14.37,10.76c-9.21,0-14.62-4.51-14.62-11.21H321.12z"/>
		<path d="M351.27,59.96c-3.03-3.22-4.57-7.47-4.57-12.82c0-5.35,1.48-9.66,4.51-12.88c3.03-3.29,7.02-4.9,11.98-4.9
			c4.83,0,8.63,1.42,11.4,4.25c2.83,2.77,4.25,6.51,4.25,11.21c0,1.48-0.13,2.83-0.32,4.06h-23.84c-0.06,6.18,3.16,9.66,8.57,9.66
			c4.06,0,7.09-2.06,7.86-4.96h7.92c-0.58,3.35-2.32,6.06-5.22,8.12c-2.83,2.06-6.31,3.09-10.5,3.09
			C358.36,64.79,354.3,63.18,351.27,59.96z M370.85,43.4c-0.06-4.96-2.96-7.86-7.86-7.86c-4.83,0-8.05,3.16-8.25,7.86H370.85z"/>
	</g>
	<path class="st5" d="M22.73,11.11h37.03c4.42,0,8,3.58,8,8v37.03c0,4.42-3.58,8-8,8H22.73c-4.42,0-8-3.58-8-8V19.11
		C14.73,14.69,18.31,11.11,22.73,11.11z"/>
</g>
</svg>
